<?xml version="1.0" encoding="UTF-8"?>
<!-- Generated by Pixelmator Pro 3.6.17 -->
<svg width="600" height="600" viewBox="0 0 600 600" xmlns="http://www.w3.org/2000/svg">
    <filter id="filter1" x="0" y="0" width="600" height="600" filterUnits="userSpaceOnUse" primitiveUnits="userSpaceOnUse" color-interpolation-filters="sRGB">
        <feGaussianBlur stdDeviation="10"/>
    </filter>
    <path id="ombra" fill="#000000" fill-rule="evenodd" stroke="none" opacity="0.3" visibility="hidden" filter="url(#filter1)" d="M -112 415.100006 C -112 528.057373 -112 584.536072 -88.284256 626.883545 C -71.5233 656.812378 -46.812393 681.523315 -16.883553 698.284302 C 25.463959 722 81.942642 722 194.899994 722 L 405.099976 722 C 518.057312 722 574.536011 722 616.883545 698.284241 C 646.812378 681.523315 671.523315 656.812378 688.284241 626.883545 C 712 584.536011 712 528.057373 712 415.100006 L 712 204.900024 C 712 91.942688 712 35.463989 688.284241 -6.883545 C 671.523254 -36.812378 646.812378 -61.523315 616.883545 -78.284241 C 574.536011 -102 518.057373 -102 405.099976 -102 L 194.899994 -102 C 81.942627 -102 25.463943 -102 -16.88356 -78.284241 C -46.812401 -61.523254 -71.523308 -36.812378 -88.284271 -6.883545 C -112.000008 35.463989 -112.000008 91.942627 -112.000008 204.900024 Z"/>
    <linearGradient id="linearGradient1" x1="300.077078" y1="-111.977718" x2="300.077078" y2="712.022282" gradientUnits="userSpaceOnUse">
        <stop offset="0" stop-color="#fdfdfd" stop-opacity="1"/>
        <stop offset="1" stop-color="#cfcfcf" stop-opacity="1"/>
    </linearGradient>
    <path id="canvas" fill="url(#linearGradient1)" fill-rule="evenodd" stroke="none" visibility="hidden" d="M -112 406.75 C -112 519.100098 -112 575.275085 -88.411758 617.394897 C -71.740921 647.162842 -47.162865 671.740906 -17.394928 688.411743 C 24.724899 712 80.899933 712 193.25 712 L 406.75 712 C 519.100037 712 575.275085 712 617.394958 688.411743 C 647.162903 671.740906 671.740967 647.162842 688.411804 617.394897 C 712.000061 575.275085 712.000061 519.100098 712.000061 406.75 L 712 193.25 C 712 80.899963 712 24.724915 688.411743 -17.394958 C 671.740906 -47.162903 647.162842 -71.740967 617.394897 -88.411804 C 575.275085 -112.000061 519.100037 -112.000061 406.749939 -112.000061 L 193.25 -112 C 80.899933 -112 24.724899 -112 -17.394928 -88.411743 C -47.162865 -71.740906 -71.740913 -47.162842 -88.411758 -17.394897 C -112 24.724915 -112 80.899963 -112 193.250061 Z"/>
    <g id="Left">
        <path id="Rounded-Rectangle" fill="#a9ccbe" fill-rule="evenodd" stroke="none" d="M 47 200 C 47 222.0914 64.908607 240 87 240 L 277 240 C 299.09137 240 317 222.0914 317 200 L 317 115 C 317 92.90863 299.09137 75 277 75 L 87 75 C 64.908607 75 47 92.90863 47 115 Z"/>
        <text id="TRUE" xml:space="preserve"><tspan x="77.001953" y="178" font-family="Helvetica" font-size="72" font-weight="700" fill="#007c77" xml:space="preserve">TR</tspan><tspan font-family="Helvetica" font-size="72" font-weight="700" fill="#007c77" xml:space="preserve">UE</tspan></text>
        <g id="Arrow">
            <path id="Rounded-Rectangle-copy" fill="#eda201" fill-rule="evenodd" stroke="none" d="M 243.264603 424.234985 L 162.029602 424.234985 C 139.938217 424.234985 122.029602 406.326385 122.029602 384.234985 L 122.029602 274 L 150.730469 274 L 150.730469 355.534119 C 150.730469 377.625519 168.639069 395.534119 190.730469 395.534119 L 243.264603 395.534119 L 243.264603 424.234985 Z"/>
            <path id="Shape" fill="#eda201" fill-rule="evenodd" stroke="none" d="M 82.497528 350.269531 L 61.997532 329.769531 L 108.713264 283.053802 C 124.334236 267.432861 149.660828 267.432861 165.281799 283.053802 L 211.997528 329.769531 L 191.497528 350.269531 L 165.281799 324.053802 C 149.660828 308.432831 124.334229 308.432831 108.713264 324.053802 L 82.497528 350.269531 Z"/>
            <g id="Group">
                <path id="Oval" fill="#379fd6" fill-rule="evenodd" stroke="none" d="M 256.965454 410 C 256.965454 401.715729 250.249725 395 241.965454 395 C 233.681183 395 226.965454 401.715729 226.965454 410 C 226.965454 418.284271 233.681183 425 241.965454 425 C 250.249725 425 256.965454 418.284271 256.965454 410 Z"/>
                <path id="Oval-copy" fill="#39c68d" fill-rule="evenodd" stroke="none" d="M 213.965454 337 C 213.965454 328.715729 207.249725 322 198.965454 322 C 190.681183 322 183.965454 328.715729 183.965454 337 C 183.965454 345.284271 190.681183 352 198.965454 352 C 207.249725 352 213.965454 345.284271 213.965454 337 Z"/>
                <path id="Oval-copy-2" fill="#db5860" fill-rule="evenodd" stroke="none" d="M 89.965462 337 C 89.965462 328.715729 83.249733 322 74.965462 322 C 66.68119 322 59.965462 328.715729 59.965462 337 C 59.965462 345.284271 66.68119 352 74.965462 352 C 83.249733 352 89.965462 345.284271 89.965462 337 Z"/>
            </g>
        </g>
    </g>
    <g id="Right">
        <path id="path1" fill="#ed9a90" fill-rule="evenodd" stroke="none" d="M 284 484 C 284 506.0914 301.9086 524 324 524 L 514 524 C 536.09137 524 554 506.0914 554 484 L 554 399 C 554 376.90863 536.09137 359 514 359 L 324 359 C 301.9086 359 284 376.90863 284 399 Z"/>
        <text id="FALSE" xml:space="preserve" x="300.966797" y="462" font-family="Helvetica" font-size="72" font-weight="700" fill="#9a1860">FALSE</text>
        <g id="g1">
            <path id="path2" fill="#39c68d" fill-rule="evenodd" stroke="none" d="M 479.029602 325.534149 L 450.328735 325.534149 L 450.328735 246 C 450.328735 223.90863 432.420135 206 410.328735 206 L 357.794617 206 L 357.794617 176.299133 L 439.029602 176.299133 C 461.121002 176.299133 479.029602 194.207733 479.029602 216.299133 L 479.029602 325.534149 Z"/>
            <path id="Shape-copy" fill="#39c68d" fill-rule="evenodd" stroke="none" d="M 387.997528 271.230469 L 408.497528 250.730469 L 434.713257 276.946198 C 450.334229 292.567169 475.660828 292.567169 491.281799 276.946198 L 517.497559 250.730469 L 537.997559 271.230469 L 491.281799 317.946198 C 475.660828 333.567139 450.334229 333.567139 434.713257 317.946198 L 387.997528 271.230469 Z"/>
            <g id="Group-copy-2">
                <path id="path3" fill="#db5860" fill-rule="evenodd" stroke="none" d="M 343.029602 191 C 343.029602 199.284271 349.745331 206 358.029602 206 C 366.313873 206 373.029602 199.284271 373.029602 191 C 373.029602 182.715729 366.313873 176 358.029602 176 C 349.745331 176 343.029602 182.715729 343.029602 191 Z"/>
                <path id="path4" fill="#eda201" fill-rule="evenodd" stroke="none" d="M 385.029602 263 C 385.029602 271.284271 391.745331 278 400.029602 278 C 408.313873 278 415.029602 271.284271 415.029602 263 C 415.029602 254.715729 408.313873 248 400.029602 248 C 391.745331 248 385.029602 254.715729 385.029602 263 Z"/>
                <path id="path5" fill="#379fd6" fill-rule="evenodd" stroke="none" d="M 511.029602 263 C 511.029602 271.284271 517.745361 278 526.029602 278 C 534.313904 278 541.029602 271.284271 541.029602 263 C 541.029602 254.715729 534.313904 248 526.029602 248 C 517.745361 248 511.029602 254.715729 511.029602 263 Z"/>
            </g>
        </g>
    </g>
</svg>
